<?xml version="1.0" encoding="utf-8"?>
<!-- Generator: Adobe Illustrator 24.3.0, SVG Export Plug-In . SVG Version: 6.00 Build 0)  -->
<svg version="1.1" id="Layer_1" xmlns="http://www.w3.org/2000/svg" xmlns:xlink="http://www.w3.org/1999/xlink" x="0px" y="0px"
	 viewBox="0 0 1545.7 405.96" style="enable-background:new 0 0 1545.7 405.96;" xml:space="preserve">
<style type="text/css">
	.st0{fill:#FFFFFF;}
	.st1{fill:#4B9BD4;}
	.st2{fill:#EC2024;}
	.st3{fill:#2AB368;}
	.st4{fill:#FDC827;}
</style>
<g>
	<g>
		<g>
			<path class="st0" d="M465.74,179.89L465.74,179.89c17.32-8.41,34.26-12.61,50.82-12.61c15.53,0,27.25,3.44,35.15,10.32
				c6.62,5.86,11.27,12.99,13.95,21.39c2.67,8.41,4.01,19.62,4.01,33.62v81.38h-36.3v-85.97c0-9.42-2.23-16.75-6.68-21.96
				c-4.46-5.22-11.02-7.83-19.68-7.83c-8.92,0-20.76,2.67-35.53,8.02v107.74h-36.3v-134.1c0-6.97,5.65-12.61,12.61-12.61h5.34
				C460.09,167.28,465.74,172.92,465.74,179.89z"/>
			<path class="st0" d="M596.4,182.51c0-6.05,4.11-11.35,10-12.71c4.49-1.04,9.5-1.94,15.02-2.71c10.06-1.39,18.4-2.1,25.02-2.1
				c23.69,0,40.69,4.4,51,13.18s15.47,23.11,15.47,42.98v92.84h-32.86L679.69,301c-11.46,9.17-25.73,13.75-42.79,13.75
				c-15.8,0-28.4-4.01-37.82-12.03s-14.14-18.53-14.14-31.52c0-14.26,5.28-25.41,15.86-33.43c10.57-8.02,25.66-12.55,45.28-13.57
				l28.65-1.53c0-9.42-0.89-15.91-2.67-19.48c-1.79-4.07-4.97-6.88-9.55-8.41s-11.84-2.29-21.78-2.29c-6.63,0-14.33,0.64-23.11,1.91
				c-2.03,0.29-3.96,0.61-5.8,0.94C603.77,196.81,596.4,190.68,596.4,182.51L596.4,182.51z M676.25,247.51l-25.98,1.91
				c-9.93,0.76-17.19,2.67-21.78,5.73c-4.58,3.06-6.87,7.51-6.87,13.37s2.16,10.45,6.49,13.76s10.32,4.97,17.96,4.97
				c6.11,0,11.14-0.51,15.09-1.53c3.95-1.01,8.98-3.31,15.09-6.87L676.25,247.51L676.25,247.51z"/>
			<path class="st0" d="M733.18,313.99h36.68V185.61c0-10.13-8.21-18.34-18.34-18.34l0,0c-10.13,0-18.34,8.21-18.34,18.34
				L733.18,313.99L733.18,313.99z"/>
			<path class="st0" d="M826.78,122.19v191.8H790.1v-191.8c0-10.13,8.21-18.34,18.34-18.34l0,0
				C818.57,103.85,826.78,112.06,826.78,122.19z M893.84,167.28L893.84,167.28c14.34,0,22.09,16.82,12.77,27.72l-32.83,38.38
				L933,314h-44.32l-58.07-80.62l50.37-60.09C884.16,169.48,888.87,167.28,893.84,167.28z"/>
			<path class="st0" d="M1063.65,103.85L1063.65,103.85c10.13,0,18.34,8.21,18.34,18.34v191.8h-29.04v-11.84
				c-12.99,7.64-26.11,11.46-39.34,11.46c-22.92,0-41.14-6.62-54.64-19.87c-13.5-13.24-20.25-30.82-20.25-52.72
				c0-17.57,3.82-32.09,11.46-43.55c6.88-10.44,15.6-18.47,26.17-24.07c10.57-5.6,21.97-8.41,34.2-8.41
				c15.02,0,26.62,2.04,34.77,6.12V122.2C1045.32,112.06,1053.52,103.85,1063.65,103.85z M1018.95,193.64
				c-28.26,0-42.4,16.43-42.4,49.29c0,13.76,3.82,24.2,11.46,31.33c7.64,7.14,18.34,10.7,32.1,10.7c9.67,0,18.07-2.42,25.21-7.26
				v-79.08C1038.69,195.3,1029.9,193.64,1018.95,193.64z"/>
			<path class="st0" d="M1108.74,182.51c0-6.05,4.11-11.35,10-12.71c4.49-1.04,9.49-1.94,15.02-2.71c10.06-1.39,18.4-2.1,25.03-2.1
				c23.69,0,40.69,4.4,51.01,13.18c10.31,8.79,15.47,23.11,15.47,42.98v92.84h-32.86l-0.39-12.99
				c-11.46,9.17-25.72,13.75-42.79,13.75c-15.8,0-28.4-4.01-37.82-12.03c-9.43-8.02-14.14-18.53-14.14-31.52
				c0-14.26,5.28-25.41,15.85-33.43c10.57-8.02,25.66-12.55,45.28-13.57l28.66-1.53c0-9.42-0.9-15.91-2.67-19.48
				c-1.79-4.07-4.97-6.88-9.56-8.41c-4.58-1.53-11.84-2.29-21.77-2.29c-6.62,0-14.33,0.64-23.11,1.91c-2.02,0.29-3.96,0.61-5.8,0.94
				C1116.11,196.81,1108.74,190.68,1108.74,182.51L1108.74,182.51z M1188.58,247.51l-25.98,1.91c-9.93,0.76-17.19,2.67-21.77,5.73
				c-4.59,3.06-6.88,7.51-6.88,13.37s2.16,10.45,6.5,13.76c4.33,3.31,10.31,4.97,17.96,4.97c6.11,0,11.14-0.51,15.09-1.53
				c3.94-1.01,8.98-3.31,15.09-6.87L1188.58,247.51L1188.58,247.51z"/>
			<path class="st0" d="M1342.56,314.37l-0.76-14.52c-11.46,5.35-20.38,8.98-26.75,10.89s-13.37,2.87-21.01,2.87
				c-19.36,0-33.11-5.35-41.26-16.05c-8.16-10.69-12.22-27.51-12.22-50.43v-61.71c0-10.02,8.12-18.15,18.15-18.15l0,0
				c10.02,0,18.15,8.12,18.15,18.15v66.68c0,9.68,2.23,17.13,6.69,22.35c4.45,5.22,11.13,7.83,20.05,7.83
				c10.95,0,21.65-2.93,32.1-8.79v-88.26c0-9.92,8.04-17.96,17.96-17.96l0,0c9.92,0,17.96,8.04,17.96,17.96v129.14H1342.56z"/>
			<path class="st0" d="M1417.44,179.89L1417.44,179.89c17.32-8.41,34.26-12.61,50.82-12.61c15.53,0,27.25,3.44,35.15,10.32
				c6.62,5.86,11.27,12.99,13.95,21.39c2.67,8.41,4.01,19.62,4.01,33.62v81.38h-36.29v-85.97c0-9.42-2.23-16.75-6.69-21.96
				c-4.46-5.22-11.02-7.83-19.68-7.83c-8.92,0-20.76,2.67-35.53,8.02v107.74h-36.29v-134.1c0-6.97,5.65-12.61,12.61-12.61h5.34
				C1411.79,167.28,1417.44,172.92,1417.44,179.89z"/>
		</g>
	</g>
	<g>
		<path class="st1" d="M196.83,43.77c-84.55,0-153.34,68.79-153.34,153.34v136.72c0,26.45,21.52,47.96,47.96,47.96
			s47.96-21.52,47.96-47.96V197.11c0-15.56,6.16-30.14,17.34-41.06c11.17-10.91,25.91-16.68,41.48-16.34
			c30.88,0.74,56.01,27.12,56.01,58.81v135.31c0,26.45,21.52,47.96,47.96,47.96s47.96-21.52,47.96-47.96V197.11
			C350.17,112.56,281.38,43.77,196.83,43.77z"/>
		<path class="st2" d="M196.83,43.77c-84.55,0-153.34,68.79-153.34,153.34v37.51c0,26.45,21.52,47.96,47.96,47.96
			s47.96-21.52,47.96-47.96v-37.51c0-15.56,6.16-30.14,17.34-41.06c11.17-10.91,25.91-16.68,41.48-16.34
			c30.88,0.74,56.01,27.12,56.01,58.81v135.31c0,26.45,21.52,47.96,47.96,47.96s47.96-21.52,47.96-47.96V197.11
			C350.17,112.56,281.38,43.77,196.83,43.77z"/>
		<circle class="st3" cx="302.21" cy="333.84" r="47.96"/>
		<path class="st4" d="M196.7,329.53L196.7,329.53c-23.73,0-42.97-19.24-42.97-42.97v-87.27c0-23.73,19.24-42.97,42.97-42.97l0,0
			c23.73,0,42.97,19.24,42.97,42.97v87.27C239.67,310.29,220.43,329.53,196.7,329.53z"/>
	</g>
</g>
</svg>
