<?xml version="1.0" encoding="utf-8"?>
<!-- Generator: Adobe Illustrator 24.3.0, SVG Export Plug-In . SVG Version: 6.00 Build 0)  -->
<svg version="1.1" id="Layer_1" xmlns="http://www.w3.org/2000/svg" xmlns:xlink="http://www.w3.org/1999/xlink" x="0px" y="0px"
	 viewBox="0 0 1080 1080" style="enable-background:new 0 0 1080 1080;" xml:space="preserve">
<style type="text/css">
	.st0{fill:#4B9BD4;}
	.st1{fill:#EC2024;}
	.st2{fill:#2AB368;}
	.st3{fill:#FDC827;}
</style>
<g>
	<path class="st0" d="M535.5,203.64c-135.68-0.21-246.69,112.6-246.69,248.28V668.5c0,43.26,35.17,78.86,78.43,78.09
		c41.85-0.74,75.66-35.01,75.66-77.03V449.95c0-24.99,9.89-48.42,27.85-65.95c17.95-17.52,41.61-26.79,66.63-26.24
		c49.61,1.19,89.97,43.56,89.97,94.47V668.5c0,43.26,35.17,78.86,78.43,78.09c41.85-0.74,75.66-35.01,75.66-77.03V449.95
		C781.42,314.27,671.14,203.85,535.5,203.64z"/>
	<path class="st1" d="M535.5,203.64c-135.68-0.21-246.69,112.6-246.69,248.28v57.21c0,43.26,35.17,78.86,78.43,78.09
		c41.85-0.74,75.66-35.01,75.66-77.03v-60.25c0-24.99,9.89-48.42,27.85-65.95c17.95-17.52,41.61-26.79,66.63-26.24
		c49.61,1.19,89.97,43.56,89.97,94.47V668.5c0,43.26,35.17,78.86,78.43,78.09c41.85-0.74,75.66-35.01,75.66-77.03V449.95
		C781.42,314.27,671.14,203.85,535.5,203.64z"/>
	<circle class="st2" cx="704.38" cy="669.56" r="77.04"/>
	<path class="st3" d="M534.91,662.65L534.91,662.65c-38.12,0-69.02-30.9-69.02-69.02V453.45c0-38.12,30.9-69.02,69.02-69.02h0
		c38.12,0,69.02,30.9,69.02,69.02v140.18C603.94,631.75,573.03,662.65,534.91,662.65z"/>
</g>
<g>
	<path d="M272.12,806.16L272.12,806.16c9.05-4.39,17.91-6.59,26.56-6.59c8.12,0,14.24,1.8,18.37,5.39
		c3.46,3.06,5.89,6.79,7.29,11.18c1.4,4.39,2.1,10.25,2.1,17.58v42.54h-18.97v-44.94c0-4.92-1.17-8.75-3.49-11.48
		c-2.33-2.73-5.76-4.09-10.29-4.09c-4.66,0-10.85,1.4-18.57,4.19v56.32h-18.97v-70.1c0-3.64,2.95-6.59,6.59-6.59h2.79
		C269.17,799.57,272.12,802.52,272.12,806.16z"/>
	<path d="M340.42,807.54c0-3.2,2.21-5.95,5.33-6.67c2.32-0.53,4.9-1,7.75-1.4c5.26-0.73,9.62-1.1,13.08-1.1
		c12.38,0,21.27,2.3,26.66,6.89c5.39,4.59,8.09,12.08,8.09,22.47v48.53h-17.18l-0.2-6.79c-5.99,4.79-13.45,7.19-22.37,7.19
		c-8.26,0-14.85-2.1-19.77-6.29c-4.93-4.19-7.39-9.68-7.39-16.48c0-7.46,2.76-13.28,8.29-17.47c5.52-4.19,13.41-6.56,23.67-7.09
		l14.98-0.8c0-4.92-0.47-8.32-1.4-10.18c-0.93-2.13-2.6-3.6-4.99-4.39c-2.4-0.8-6.19-1.2-11.38-1.2c-3.46,0-7.49,0.33-12.08,1
		c-1.04,0.15-2.03,0.31-2.97,0.48C344.31,815,340.42,811.83,340.42,807.54L340.42,807.54z M382.16,841.51l-13.58,1
		c-5.19,0.4-8.99,1.4-11.38,3c-2.4,1.6-3.59,3.93-3.59,6.99c0,3.06,1.13,5.46,3.39,7.19c2.26,1.73,5.39,2.6,9.39,2.6
		c3.2,0,5.82-0.26,7.89-0.8c2.06-0.53,4.69-1.73,7.89-3.59V841.51z"/>
	<path d="M411.91,876.26h19.17v-67.1c0-5.29-4.29-9.59-9.59-9.59h0c-5.29,0-9.59,4.29-9.59,9.59V876.26z"/>
	<path d="M460.84,776.01v100.26h-19.17V776.01c0-5.29,4.29-9.59,9.59-9.59h0C456.55,766.42,460.84,770.71,460.84,776.01z
		 M495.89,799.57L495.89,799.57c7.5,0,11.55,8.79,6.67,14.49l-17.16,20.06l30.96,42.14h-23.17l-30.36-42.14l26.33-31.41
		C490.83,800.72,493.3,799.57,495.89,799.57z"/>
	<path d="M584.66,766.42L584.66,766.42c5.29,0,9.59,4.29,9.59,9.59v100.26h-15.18v-6.19c-6.79,4-13.65,5.99-20.57,5.99
		c-11.98,0-21.51-3.46-28.56-10.39c-7.06-6.92-10.58-16.11-10.58-27.56c0-9.19,2-16.78,5.99-22.77c3.6-5.46,8.15-9.65,13.68-12.58
		c5.52-2.93,11.48-4.39,17.87-4.39c7.85,0,13.91,1.07,18.17,3.2V776C575.07,770.71,579.36,766.42,584.66,766.42z M561.29,813.35
		c-14.77,0-22.17,8.59-22.17,25.76c0,7.19,2,12.65,5.99,16.38c3.99,3.73,9.59,5.59,16.78,5.59c5.06,0,9.45-1.26,13.18-3.8v-41.34
		C571.61,814.22,567.01,813.35,561.29,813.35z"/>
	<path d="M608.23,807.54c0-3.2,2.21-5.95,5.33-6.67c2.32-0.53,4.9-1,7.75-1.39c5.26-0.73,9.62-1.1,13.08-1.1
		c12.38,0,21.27,2.3,26.66,6.89c5.39,4.59,8.09,12.08,8.09,22.47v48.53h-17.17l-0.2-6.79c-5.99,4.79-13.45,7.19-22.37,7.19
		c-8.26,0-14.85-2.1-19.77-6.29c-4.93-4.19-7.39-9.68-7.39-16.48c0-7.46,2.76-13.28,8.29-17.47c5.52-4.19,13.41-6.56,23.67-7.09
		l14.98-0.8c0-4.92-0.47-8.32-1.4-10.18c-0.93-2.13-2.6-3.6-4.99-4.39c-2.39-0.8-6.19-1.2-11.38-1.2c-3.46,0-7.49,0.33-12.08,1
		c-1.04,0.15-2.03,0.31-2.97,0.48C612.11,815,608.23,811.83,608.23,807.54L608.23,807.54z M649.96,841.51l-13.58,1
		c-5.19,0.4-8.99,1.4-11.38,3c-2.4,1.6-3.6,3.93-3.6,6.99c0,3.06,1.13,5.46,3.4,7.19c2.26,1.73,5.39,2.6,9.39,2.6
		c3.2,0,5.82-0.26,7.89-0.8c2.06-0.53,4.69-1.73,7.89-3.59V841.51z"/>
	<path d="M730.45,876.46l-0.4-7.59c-5.99,2.8-10.65,4.69-13.98,5.69c-3.33,1-6.99,1.5-10.98,1.5c-10.12,0-17.31-2.8-21.57-8.39
		c-4.26-5.59-6.39-14.38-6.39-26.36v-32.26c0-5.24,4.25-9.49,9.49-9.49l0,0c5.24,0,9.49,4.25,9.49,9.49v34.85
		c0,5.06,1.16,8.96,3.5,11.68c2.33,2.73,5.82,4.09,10.48,4.09c5.72,0,11.32-1.53,16.78-4.59v-46.13c0-5.18,4.2-9.39,9.39-9.39l0,0
		c5.18,0,9.39,4.2,9.39,9.39v67.5H730.45z"/>
	<path d="M769.59,806.16L769.59,806.16c9.05-4.39,17.91-6.59,26.56-6.59c8.12,0,14.24,1.8,18.37,5.39
		c3.46,3.06,5.89,6.79,7.29,11.18s2.1,10.25,2.1,17.58v42.54h-18.97v-44.94c0-4.92-1.17-8.75-3.5-11.48
		c-2.33-2.73-5.76-4.09-10.29-4.09c-4.66,0-10.85,1.4-18.57,4.19v56.32h-18.97v-70.1c0-3.64,2.95-6.59,6.59-6.59H763
		C766.64,799.57,769.59,802.52,769.59,806.16z"/>
</g>
</svg>
