<?xml version="1.0" encoding="utf-8"?>
<!-- Generator: Adobe Illustrator 24.3.0, SVG Export Plug-In . SVG Version: 6.00 Build 0)  -->
<svg version="1.1" id="Layer_1" xmlns="http://www.w3.org/2000/svg" xmlns:xlink="http://www.w3.org/1999/xlink" x="0px" y="0px"
	 viewBox="0 0 700 700" style="enable-background:new 0 0 700 700;" xml:space="preserve">
<style type="text/css">
	.st0{fill:#4B9BD4;}
	.st1{fill:#EC2024;}
	.st2{fill:#2AB368;}
	.st3{fill:#FDC827;}
</style>
<g>
	<path class="st0" d="M350.4,78.5c-135.7-0.2-246.7,112.6-246.7,248.3v216.6c0,43.3,35.2,78.9,78.4,78.1c41.9-0.7,75.7-35,75.7-77
		V324.8c0-25,9.9-48.4,27.9-66c18-17.5,41.6-26.8,66.6-26.2c49.6,1.2,90,43.6,90,94.5v216.3c0,43.3,35.2,78.9,78.4,78.1
		c41.8-0.7,75.7-35,75.7-77V324.8C596.3,189.1,486,78.7,350.4,78.5z"/>
	<path class="st1" d="M350.4,78.5c-135.7-0.2-246.7,112.6-246.7,248.3V384c0,43.3,35.2,78.9,78.4,78.1c41.9-0.7,75.7-35,75.7-77
		v-60.2c0-25,9.9-48.4,27.9-65.9c18-17.5,41.6-26.8,66.6-26.2c49.6,1.2,90,43.6,90,94.5v216.3c0,43.3,35.2,78.9,78.4,78.1
		c41.8-0.7,75.7-35,75.7-77V324.8C596.3,189.1,486,78.7,350.4,78.5z"/>
	<circle class="st2" cx="519.3" cy="544.4" r="77"/>
	<path class="st3" d="M349.8,537.5L349.8,537.5c-38.1,0-69-30.9-69-69V328.3c0-38.1,30.9-69,69-69l0,0c38.1,0,69,30.9,69,69v140.2
		C418.8,506.6,387.9,537.5,349.8,537.5z"/>
</g>
</svg>
